Coordinates
version=1
nRows=7
nColumns=40
inDegrees=yes

Units are S.I. units (second, meters, Newtons, ...)
If the header above contains a line with 'inDegrees', this indicates whether rotational values are in degrees (yes) or radians (no).

endheader
time	pelvis_tilt	pelvis_list	pelvis_rotation	pelvis_tx	pelvis_ty	pelvis_tz	hip_flexion_r	hip_adduction_r	hip_rotation_r	knee_angle_r	knee_angle_r_beta	ankle_angle_r	subtalar_angle_r	mtp_angle_r	hip_flexion_l	hip_adduction_l	hip_rotation_l	knee_angle_l	knee_angle_l_beta	ankle_angle_l	subtalar_angle_l	mtp_angle_l	lumbar_extension	lumbar_bending	lumbar_rotation	arm_flex_r	arm_add_r	arm_rot_r	elbow_flex_r	pro_sup_r	wrist_flex_r	wrist_dev_r	arm_flex_l	arm_add_l	arm_rot_l	elbow_flex_l	pro_sup_l	wrist_flex_l	wrist_dev_l
      3.40500000	    -35.58633271	     -1.51811636	     -1.03650810	     -0.39074486	      0.61018155	     -0.89819859	     95.88352858	    -10.56586859	     -2.47161822	     97.58053518	      1.70310162	     37.77048995	      0.00000000	      0.00000000	     96.56532135	    -18.04976882	      0.03414330	     97.20292045	      1.69651100	     36.67906021	      0.00000000	      0.00000000	     -6.66913307	    -14.47188820	     -3.82911441	      7.00005871	    -41.42223530	     70.33012473	     82.53019757	     87.86250397	      0.00000000	      0.00000000	     17.58460398	    -61.51762810	     87.82693106	    109.42282796	     87.91174151	      0.00000000	      0.00000000
      3.41000000	    -35.61802136	     -1.54874120	     -1.00110275	     -0.39072521	      0.61016818	     -0.89817075	     95.90306047	    -10.62175172	     -2.53628782	     97.58500235	      1.70317959	     37.76664646	      0.00000000	      0.00000000	     96.61762961	    -17.96999672	      0.11976126	     97.20922852	      1.69662110	     36.66584169	      0.00000000	      0.00000000	     -6.61352006	    -14.40385673	     -3.89776111	      7.00987020	    -41.42062268	     70.33656899	     82.52400763	     87.91315992	      0.00000000	      0.00000000	     17.48179208	    -61.50160660	     87.72631183	    109.42408516	     87.94142739	      0.00000000	      0.00000000
      3.41500000	    -35.47613067	     -1.55263814	     -0.92500506	     -0.39035583	      0.61056966	     -0.89821750	     95.69786821	    -10.72520103	     -2.57469698	     97.58350174	      1.70315340	     37.86487229	      0.00000000	      0.00000000	     96.40414743	    -17.87672379	      0.13076400	     97.17678885	      1.69605492	     36.73309293	      0.00000000	      0.00000000	     -6.75498261	    -14.36635843	     -3.95802305	      6.98443897	    -41.42633602	     70.26789210	     82.47772271	     87.89135246	      0.00000000	      0.00000000	     17.63993833	    -61.46332050	     87.86302363	    109.36294294	     87.88578433	      0.00000000	      0.00000000
      3.42000000	    -35.43076646	     -1.49481961	     -0.96244247	     -0.39012715	      0.61082879	     -0.89805569	     95.63776199	    -10.69918722	     -2.55298022	     97.56390849	      1.70281143	     37.82113259	      0.00000000	      0.00000000	     96.29251301	    -17.90326641	      0.08631313	     97.15015445	      1.69559006	     36.73778673	      0.00000000	      0.00000000	     -6.74285194	    -14.39930731	     -3.91168617	      6.98107720	    -41.39123555	     70.30697845	     82.43611078	     87.87321001	      0.00000000	      0.00000000	     17.67516368	    -61.41569844	     87.88769133	    109.29130080	     87.88845190	      0.00000000	      0.00000000
      3.42500000	    -35.39540630	     -1.47752590	     -0.99208582	     -0.38993514	      0.61108689	     -0.89785298	     95.56484191	    -10.68266655	     -2.58724810	     97.54414815	      1.70246655	     37.85702808	      0.00000000	      0.00000000	     96.20551596	    -17.92594666	      0.08939622	     97.11749199	      1.69502000	     36.75493558	      0.00000000	      0.00000000	     -6.71629387	    -14.42012154	     -3.88352466	      6.96624926	    -41.36027826	     70.29984081	     82.38941759	     87.87555990	      0.00000000	      0.00000000	     17.69507426	    -61.42447528	     87.87783583	    109.29092139	     87.89399090	      0.00000000	      0.00000000
      3.43000000	    -35.44294873	     -1.44258970	     -1.02345227	     -0.38989953	      0.61119477	     -0.89773719	     95.61000029	    -10.64268704	     -2.56306061	     97.51712394	      1.70199489	     37.73848613	      0.00000000	      0.00000000	     96.21973998	    -17.92708676	      0.08798786	     97.08889233	      1.69452084	     36.73417132	      0.00000000	      0.00000000	     -6.60058183	    -14.43047542	     -3.86919549	      7.01186139	    -41.36448960	     70.36944757	     82.30458841	     87.88601895	      0.00000000	      0.00000000	     17.69133000	    -61.39951566	     87.87168375	    109.25917745	     87.89996487	      0.00000000	      0.00000000
      3.43500000	    -35.99075891	     -1.62592723	     -0.51798051	     -0.39091797	      0.61032555	     -0.89875917	     96.18994867	    -11.27472658	     -2.75860174	     97.52623126	      1.70215384	     37.72275376	      0.00000000	      0.00000000	     96.90875853	    -17.17345136	      0.36809484	     96.89673372	      1.69116704	     36.63427461	      0.00000000	      0.00000000	     -6.03323979	    -14.05607352	     -4.26943966	      6.84876692	    -41.55471765	     70.28151704	     82.46539227	     87.89969492	      0.00000000	      0.00000000	     17.76499674	    -61.24056497	     87.94422903	    109.22517147	     87.90361957	      0.00000000	      0.00000000
